<?xml version="1.0" encoding="utf-8"?>
<!-- Generator: Adobe Illustrator 27.4.0, SVG Export Plug-In . SVG Version: 6.00 Build 0)  -->
<svg version="1.1" id="Logo" xmlns="http://www.w3.org/2000/svg" xmlns:xlink="http://www.w3.org/1999/xlink" x="0px" y="0px"
	 viewBox="0 0 160 45" style="enable-background:new 0 0 160 45;" xml:space="preserve">
<style type="text/css">
	.st0{fill:#323E48;}
	.st1{fill:url(#SVGID_1_);}
	.st2{fill:url(#SVGID_00000031908265723399223600000001806833353329810311_);}
	.st3{fill:url(#SVGID_00000129174042655408662920000003332996231185338551_);}
	.st4{fill:url(#SVGID_00000003085730388733798850000009504023330208479919_);}
</style>
<g>
	<g>
		<g>
			<path class="st0" d="M133.9,15.5c-1.5,0-3.2,0.6-4.2,1.5c-0.1,0.1-0.1,0.2-0.1,0.3v15.7c0,0.2-0.2,0.4-0.4,0.4h-3
				c-0.2,0-0.4-0.2-0.4-0.4V15.1c0-0.1,0-0.2,0.1-0.3c2.2-1.9,5-3,8-3h3.4c0.2,0,0.4,0.2,0.4,0.4v2.9c0,0.2-0.2,0.4-0.4,0.4H133.9
				L133.9,15.5z"/>
			<path class="st0" d="M115.8,24.8c0-0.1,0-0.1-0.1-0.1c-1.1-0.6-3.1-1-5.2-1.1c-2.3,0-3.6,0.3-5.2,1.3c0,0-0.1,0.1-0.1,0.1v4
				c0,0.1,0,0.1,0.1,0.1c1.2,0.8,2.7,1.1,5.2,1.2c2.3,0,4-0.4,5.3-1.2c0,0,0.1-0.1,0.1-0.1L115.8,24.8L115.8,24.8L115.8,24.8z
				 M101.9,16c-0.2,0-0.4-0.2-0.4-0.4v-1.7c0-0.1,0-0.1,0.1-0.1c2.4-1.7,5.8-2.4,8.9-2.4c3.4,0,6.6,0.8,9,2.7c0,0,0.1,0.1,0.1,0.1
				v16.8c0,0,0,0.1-0.1,0.1c-2.3,1.8-5.1,2.7-9,2.7c-3.8,0-6.5-0.8-8.9-2.7c0,0-0.1-0.1-0.1-0.1v-8c0-0.1,0-0.1,0.1-0.1
				c2-1.6,5.2-2.8,8.9-2.7c1.5,0,3.4,0.3,5.1,0.9c0.1,0,0.2,0,0.2-0.1v-4.8c0-0.1,0-0.1-0.1-0.1c-1.3-0.9-2.9-1.2-5.3-1.2
				c-2.1,0-3.7,0.3-5.1,1.1c0,0,0,0-0.1,0L101.9,16z"/>
		</g>
	</g>
	<path class="st0" d="M69.1,12.2c0-0.2,0.2-0.4,0.4-0.4h3c0.2,0,0.4,0.2,0.4,0.4v4.2c0,4.9,1.2,9.1,3.9,12.8c0,0,0.1,0.1,0.1,0.1
		c0,0,0.1,0,0.1-0.1c0,0,0,0,0-0.1l4.6-12.9C81.7,16,81.8,16,82,16h1.9c0.3,0,0.4,0.2,0.5,0.4L89,29.1c0,0,0,0,0,0.1
		c0,0,0.1,0.1,0.1,0.1c0,0,0.1,0,0.1-0.1c2.6-3.7,3.9-8,3.9-12.8v-4.2c0-0.2,0.2-0.4,0.4-0.4h3c0.2,0,0.4,0.2,0.4,0.4v4.2
		c0,6.1-1.9,11.5-5.8,16.7c0,0-0.2,0.2-0.4,0.2H87c-0.2,0-0.3-0.1-0.4-0.3l-3.5-9.8c-0.1-0.2-0.3-0.2-0.4,0l-3.5,9.8
		c-0.1,0.2-0.2,0.3-0.4,0.3c0,0-3.7,0-3.8,0c-0.2,0-0.4-0.3-0.4-0.3c-3.9-5.2-5.7-10.6-5.7-16.7L69.1,12.2L69.1,12.2z"/>
	<path class="st0" d="M64.8,15.6c0,0.2-0.2,0.4-0.4,0.4h-3.3c-0.1,0-0.1,0-0.2-0.1c-1.4-0.8-2.7-1.1-4.9-1.1c-2,0-3.3,0.3-4.7,1.1
		c-0.1,0.1-0.2,0.2-0.2,0.4v2.3c0,0.2,0.1,0.3,0.3,0.4l13.2,4.7c0.2,0.1,0.3,0.2,0.3,0.4v6.8c0,0.1-0.1,0.2-0.2,0.3
		c-2.4,1.9-5.4,2.7-8.7,2.7c-3.4,0-6.2-0.9-8.5-2.7c-0.1-0.1-0.2-0.2-0.2-0.3v-1.4c0-0.2,0.2-0.4,0.4-0.4h3.2c0.1,0,0.1,0,0.2,0.1
		c1.2,0.8,2.9,1.2,5,1.2c2.1,0,3.5-0.4,4.9-1.2c0.1-0.1,0.2-0.2,0.2-0.3v-2.3c0-0.2-0.1-0.3-0.3-0.4l-13.2-4.7
		c-0.2-0.1-0.3-0.2-0.3-0.4v-6.9c0-0.1,0.1-0.2,0.2-0.3c2.3-1.8,5.2-2.7,8.5-2.7c3.2,0,6.1,0.8,8.5,2.7c0.1,0.1,0.2,0.2,0.2,0.3
		L64.8,15.6L64.8,15.6z"/>
	<path class="st0" d="M146.1,24.1h13.5c0.2,0,0.4-0.2,0.4-0.4v-9c0-0.1,0-0.2-0.1-0.3c-2.3-2.1-5.6-3.2-8.6-3.2
		c-4.1,0-7.1,1.2-9.2,3.2c-0.1,0.1-0.1,0.2-0.1,0.3v15.7c0,0.1,0,0.2,0.1,0.3c3.8,3.3,9.2,3,9.2,3s4.8,0.3,8.5-2.7
		c0.1-0.1,0.2-0.2,0.2-0.3v-1.4c0-0.2-0.2-0.4-0.4-0.4h-3.2c-0.1,0-0.2,0-0.2,0.1c-1.2,0.8-2.9,1.2-5,1.2c0,0-3.5,0.2-5.4-1.3
		c-0.1-0.1-0.2-0.2-0.2-0.3v-4.1C145.8,24.3,145.9,24.1,146.1,24.1z M145.8,16.4c0-0.1,0.1-0.3,0.2-0.3c1.3-1,2.7-1.5,5.4-1.5
		c1.9,0,3.5,0.6,4.8,1.5c0.1,0.1,0.2,0.2,0.2,0.3v4.1c0,0.2-0.2,0.4-0.4,0.4h-9.7c-0.2,0-0.4-0.2-0.4-0.4L145.8,16.4L145.8,16.4z"/>
	<g>
		<polygon class="st0" points="5.7,8.1 0,6.1 0.1,11.5 5.7,13.5 		"/>
		<polygon class="st0" points="30.5,37 36.1,39 36.1,33.6 30.5,31.6 		"/>
	</g>
	<g>
		
			<linearGradient id="SVGID_1_" gradientUnits="userSpaceOnUse" x1="27.7506" y1="-1979.1024" x2="11.5251" y2="-2001.3822" gradientTransform="matrix(1 0 0 -1 0 -1954.032)">
			<stop  offset="0.1958" style="stop-color:#00A84F"/>
			<stop  offset="0.2943" style="stop-color:#00A157"/>
			<stop  offset="0.6259" style="stop-color:#008F77"/>
			<stop  offset="0.8677" style="stop-color:#008385"/>
			<stop  offset="0.9927" style="stop-color:#027E8A"/>
		</linearGradient>
		<path class="st1" d="M36.1,39l-5.6-2c-3.4,2.2-7.3,3.1-12.3,3.1s-9.1-1-12.4-3.1C5.7,37,5.6,37,5.5,37l-5.1,0
			c-0.3,0-0.4,0.2-0.4,0.4v1.9c0,0.1,0.1,0.3,0.2,0.3l0.3,0.2c4.8,3.6,10.8,5.3,17.7,5.3c6.9,0,12.6-1.7,17.5-5.2l0.3-0.2
			c0.1-0.1,0.2-0.2,0.2-0.4L36.1,39L36.1,39z"/>
		
			<linearGradient id="SVGID_00000117677043910078060140000011957349605678654600_" gradientUnits="userSpaceOnUse" x1="21.2596" y1="-1974.3579" x2="5.0342" y2="-1996.6377" gradientTransform="matrix(1 0 0 -1 0 -1954.032)">
			<stop  offset="0.1958" style="stop-color:#00A84F"/>
			<stop  offset="0.2651" style="stop-color:#00A157"/>
			<stop  offset="0.4982" style="stop-color:#008F77"/>
			<stop  offset="0.6683" style="stop-color:#008385"/>
			<stop  offset="0.7561" style="stop-color:#027E8A"/>
		</linearGradient>
		<path style="fill:url(#SVGID_00000117677043910078060140000011957349605678654600_);" d="M35.8,18.8L5.7,8.1v5.4l24.6,8.7
			c0.2,0.1,0.3,0.2,0.3,0.4v9l5.6,2V19.1C36.1,19,36,18.8,35.8,18.8z"/>
	</g>
	
		<linearGradient id="SVGID_00000159468346073259029930000011780612230721325469_" gradientUnits="userSpaceOnUse" x1="23.3306" y1="-1956.9904" x2="13.7648" y2="-1982.2972" gradientTransform="matrix(1 0 0 -1 0 -1954.032)">
		<stop  offset="9.270000e-02" style="stop-color:#00A84F"/>
		<stop  offset="1" style="stop-color:#00A79D"/>
	</linearGradient>
	<path style="fill:url(#SVGID_00000159468346073259029930000011780612230721325469_);" d="M30.5,31.6L5.9,22.9
		c-0.2-0.1-0.3-0.2-0.3-0.4v-9l-5.6-2l0,14.5c0,0.2,0.2,0.3,0.3,0.4L30.5,37V31.6z"/>
	
		<linearGradient id="SVGID_00000121257368546584737090000002039808724326233479_" gradientUnits="userSpaceOnUse" x1="19.9686" y1="-1955.7196" x2="10.4028" y2="-1981.0265" gradientTransform="matrix(1 0 0 -1 0 -1954.032)">
		<stop  offset="9.270000e-02" style="stop-color:#00A84F"/>
		<stop  offset="1" style="stop-color:#00A79D"/>
	</linearGradient>
	<path style="fill:url(#SVGID_00000121257368546584737090000002039808724326233479_);" d="M0.6,5.2C5.4,1.7,11.1,0,18,0
		c6.9,0,12.8,1.8,17.6,5.3l0.3,0.2c0.1,0.1,0.2,0.2,0.2,0.3v1.8c0,0.2-0.2,0.4-0.4,0.4h-5.1c-0.1,0-0.2,0-0.3-0.1
		C27,5.9,22.9,4.9,17.9,4.9S9.1,5.8,5.6,8L0,6.1V5.9V5.7c0-0.1,0.1-0.3,0.2-0.3L0.6,5.2z"/>
</g>
</svg>
